<?xml version="1.0" encoding="UTF-8"?>
<svg id="Layer_2" data-name="Layer 2" xmlns="http://www.w3.org/2000/svg" xmlns:xlink="http://www.w3.org/1999/xlink" viewBox="0 0 959.1 230.6">
  <defs>
    <style>
      .cls-1 {
        fill: url(#New_Gradient_Swatch-2);
      }

      .cls-1, .cls-2, .cls-3, .cls-4 {
        stroke-width: 0px;
      }

      .cls-2 {
        filter: url(#drop-shadow-1);
      }

      .cls-2, .cls-3 {
        fill: #1f4a2c;
      }

      .cls-4 {
        fill: url(#New_Gradient_Swatch);
      }
    </style>
    <linearGradient id="New_Gradient_Swatch" data-name="New Gradient Swatch" x1="18.28" y1="24.68" x2="153.26" y2="102.61" gradientUnits="userSpaceOnUse">
      <stop offset=".08" stop-color="#1f4a2c"/>
      <stop offset=".16" stop-color="#26502d"/>
      <stop offset=".28" stop-color="#396132"/>
      <stop offset=".37" stop-color="#4e7337"/>
      <stop offset=".53" stop-color="#5a9471"/>
      <stop offset=".73" stop-color="#4e7337"/>
      <stop offset=".91" stop-color="#1f4a2c"/>
    </linearGradient>
    <linearGradient id="New_Gradient_Swatch-2" data-name="New Gradient Swatch" x1="17.36" y1="113.03" x2="141.61" y2="184.77" xlink:href="#New_Gradient_Swatch"/>
    <filter id="drop-shadow-1" filterUnits="userSpaceOnUse">
      <feOffset dx="-9" dy="0"/>
      <feGaussianBlur result="blur" stdDeviation="5"/>
      <feFlood flood-color="#000" flood-opacity=".75"/>
      <feComposite in2="blur" operator="in"/>
      <feComposite in="SourceGraphic"/>
    </filter>
  </defs>
  <g id="Layer_1-2" data-name="Layer 1">
    <g>
      <path class="cls-4" d="m158.4,31.23c-8.02-10.81-18.28-18.72-30.81-23.72C115.07,2.5,101.49,0,86.86,0c-15.83,0-29.96,2.65-42.38,7.97-12.42,5.31-22.04,12.63-28.85,21.95-6.81,9.32-10.22,19.99-10.22,32.02,0,15.04,3.51,27.11,10.52,36.23,7.01,9.12,15.23,15.88,24.65,20.29,1.5.7,3.07,1.41,4.71,2.12-.43-.69-.86-1.41-1.26-2.17-4.05-7.55-6.17-15.72-6.28-24.27-.11-8.02,1.63-16.09,5.03-23.36,6.8-14.55,19.4-24.7,34.57-27.83,3.17-.65,6.4-.99,9.6-.99,11.97,0,23.52,4.59,32.54,12.91,5.3,4.9,9.47,10.87,12.3,17.5h38.95c-.2-16.62-4.31-30.33-12.32-41.14Z"/>
      <path class="cls-1" d="m168.98,129.02l-44.74,85.83c-10.35,3.08-22.11,4.63-35.27,4.63-17.23,0-32.51-2.91-45.84-8.72-13.33-5.81-23.8-14.43-31.41-25.86C4.1,173.47.2,159.53,0,143.09h58.1s4.07,7.42,4.07,7.42h0s14.06,25.65,14.06,25.65l1.78,3.24,8.4,15.32,6.08-9.46c.13-.2.24-.36.33-.5.23-.35.47-.72.73-1.18,1.56-2.84,3.12-5.69,4.67-8.53l2.85-5.21,10.21-18.63,3.25-5.93,1-1.83c.77-1.4,1.53-2.8,2.3-4.19.79-1.45,1.57-2.92,2.33-4.34,2.02-3.81,3.94-7.41,6.15-10.72,5.41-8.1,8.58-16.66,9.47-25.58,1.16.51,2.29,1.03,3.39,1.54,9.42,4.41,17.64,11.17,24.65,20.28,2.01,2.61,3.74,5.47,5.17,8.55Z"/>
      <path class="cls-3" d="m129.05,88.06c-2.86-25.8-26.07-43.59-50.36-38.57-28.32,5.85-42.99,39.31-28.78,65.76,1.34,2.5,3.11,4.76,4.48,7.25,7.92,14.35,15.78,28.73,23.66,43.1,2.89,5.27,5.79,10.55,8.81,16.06.41-.63.63-.94.82-1.28,8.1-14.77,16.18-29.56,24.29-44.32,2.87-5.22,5.5-10.63,8.79-15.55,6.57-9.82,9.63-20.47,8.3-32.45Zm-16.75,5.04c-.21,14.5-11.89,26.38-25.71,26.13-14.2-.26-25.34-12.42-25.08-27.37.26-14.8,11.87-26.34,26.26-26.08,13.67.24,24.74,12.57,24.52,27.33Z"/>
      <path class="cls-3" d="m87.03,110.74c-.09,0-.19,0-.28,0-4.52-.08-8.73-2.01-11.86-5.42-3.24-3.54-4.97-8.27-4.89-13.32.17-9.95,7.78-17.75,17.31-17.75.1,0,.21,0,.31,0,4.23.07,8.24,1.99,11.3,5.4,3.22,3.59,4.96,8.32,4.89,13.32-.14,9.63-7.83,17.77-16.78,17.77,0,0,0,0,0,0Z"/>
      <path class="cls-2" d="m143.49,140.3c-9.2,6.43-15.83,15.03-19.9,25.82-4.07,10.79-4.86,23.13-2.35,37.03.7,3.86,1.7,7.76,3,11.7l44.74-85.83c-8.33,1.47-16.83,5.23-25.49,11.28Z"/>
    </g>
    <path class="cls-3" d="m283.95,118.04c1.54,2.56,2.31,5.76,2.31,9.61,0,4.27-1.21,8.21-3.62,11.82-2.42,3.61-6.04,6.5-10.87,8.67-4.83,2.17-10.89,3.26-18.18,3.26-6.09,0-11.92-.75-17.49-2.26-5.57-1.51-10.07-3.41-13.5-5.73l6.83-15.44c3.29,2.1,7.09,3.83,11.4,5.2,4.31,1.37,8.6,2.05,12.87,2.05,2.94,0,5.27-.24,6.99-.74,1.72-.49,2.98-1.19,3.78-2.1.8-.91,1.21-2,1.21-3.26,0-1.61-.77-2.89-2.31-3.83-1.54-.95-3.56-1.75-6.04-2.42-2.49-.67-5.18-1.3-8.09-1.89-2.91-.59-5.87-1.38-8.88-2.36-3.01-.98-5.74-2.28-8.19-3.89-2.45-1.61-4.43-3.71-5.94-6.3-1.51-2.59-2.26-5.85-2.26-9.77,0-4.34,1.19-8.3,3.57-11.87,2.38-3.57,5.99-6.44,10.82-8.62,4.83-2.17,10.86-3.26,18.07-3.26,4.83,0,9.58.54,14.24,1.63,4.66,1.09,8.77,2.72,12.34,4.89l-6.3,15.34c-3.5-1.96-6.97-3.4-10.4-4.31-3.43-.91-6.76-1.37-9.98-1.37-2.87,0-5.18.32-6.93.95-1.75.63-3.01,1.44-3.78,2.42-.77.98-1.16,2.03-1.16,3.15,0,1.68.77,2.99,2.31,3.94,1.54.95,3.54,1.72,5.99,2.31,2.45.6,5.16,1.21,8.14,1.84,2.98.63,5.94,1.42,8.88,2.36,2.94.95,5.66,2.21,8.14,3.78,2.49,1.58,4.5,3.64,6.04,6.2Zm36.98-41.66h-20.8v73.54h55.79v-16.49h-34.98v-57.05Zm97.76,35.46c-2.49-1.58-5.2-2.84-8.14-3.78-2.94-.95-5.9-1.73-8.88-2.36s-5.69-1.24-8.14-1.84c-2.45-.59-4.45-1.37-5.99-2.31-1.54-.95-2.31-2.26-2.31-3.94,0-1.12.38-2.17,1.16-3.15.77-.98,2.03-1.79,3.78-2.42,1.75-.63,4.06-.95,6.93-.95,3.22,0,6.55.46,9.98,1.37,3.43.91,6.9,2.35,10.4,4.31l6.3-15.34c-3.57-2.17-7.69-3.8-12.35-4.89-4.66-1.09-9.4-1.63-14.23-1.63-7.22,0-13.24,1.09-18.07,3.26-4.83,2.17-8.44,5.04-10.82,8.62-2.38,3.57-3.57,7.53-3.57,11.87,0,3.92.75,7.18,2.26,9.77,1.51,2.59,3.48,4.69,5.94,6.3,2.45,1.61,5.18,2.91,8.2,3.89,3.01.98,5.97,1.77,8.88,2.36,2.9.6,5.6,1.23,8.09,1.89,2.49.67,4.5,1.47,6.04,2.42,1.54.95,2.31,2.22,2.31,3.83,0,1.26-.4,2.35-1.21,3.26-.81.91-2.07,1.61-3.78,2.1-1.72.49-4.05.74-6.99.74-4.27,0-8.56-.68-12.87-2.05-4.31-1.37-8.11-3.1-11.4-5.2l-6.83,15.44c3.43,2.31,7.93,4.22,13.5,5.73,5.57,1.51,11.4,2.26,17.49,2.26,7.28,0,13.34-1.09,18.18-3.26,4.83-2.17,8.46-5.06,10.87-8.67,2.42-3.61,3.63-7.55,3.63-11.82,0-3.85-.77-7.06-2.31-9.61-1.54-2.56-3.56-4.62-6.04-6.2Zm70.02,4.78c0,6.23-1.21,10.72-3.62,13.45-2.42,2.73-5.8,4.1-10.14,4.1s-7.74-1.37-10.19-4.1c-2.45-2.73-3.68-7.21-3.68-13.45v-40.24h-20.8v40.87c0,10.86,3.03,19.26,9.09,25.21,6.06,5.95,14.51,8.93,25.37,8.93s19.24-2.98,25.37-8.93c6.13-5.95,9.19-14.36,9.19-25.21v-40.87h-20.59v40.24Zm229.35,33.3h-14.4l-7.28-17.02h-36.78l-7.31,17.02h-13.97l33.09-73.54h13.44l33.2,73.54Zm-26.26-27.74l-13.77-32.18-13.82,32.18h27.59Zm105.06,7.78c0,6.31-2.4,11.21-7.2,14.71-4.8,3.5-11.92,5.25-21.38,5.25h-36.67v-73.54h34.57c8.75,0,15.44,1.74,20.07,5.2,4.62,3.47,6.93,8.11,6.93,13.92,0,3.93-.91,7.27-2.73,10.03-1.68,2.56-3.88,4.56-6.6,6.04,0,0,0,.02,0,.02l2.41,1.08c3.29,1.51,5.88,3.7,7.77,6.57s2.84,6.44,2.84,10.72Zm-51.59-22.59h19.33c4.7,0,8.34-.84,10.93-2.52,2.59-1.68,3.89-4.2,3.89-7.57s-1.3-5.98-3.89-7.67c-2.59-1.68-6.23-2.52-10.93-2.52h-19.33v20.28Zm37.93,21.22c0-3.64-1.37-6.32-4.1-8.04-2.73-1.71-6.62-2.57-11.66-2.57h-22.17v21.22h22.17c5.04,0,8.93-.84,11.66-2.52,2.73-1.68,4.1-4.38,4.1-8.09Zm102.01,21.33h-14.39l-7.29-17.02h-36.78l-7.31,17.02h-13.97l33.09-73.54h13.45l33.2,73.54Zm-26.26-27.74l-13.77-32.18-13.82,32.18h27.59Zm-238.79-19.74l-11.97,17.38h5.45v15.34c-1.49.86-3.01,1.56-4.57,2.09-3.39,1.16-6.92,1.73-10.56,1.73-3.92,0-7.49-.63-10.72-1.89-3.22-1.26-6.03-3.05-8.4-5.36-2.38-2.31-4.24-5.06-5.57-8.25-1.33-3.19-2-6.63-2-10.35s.67-7.25,2-10.4c1.33-3.15,3.19-5.88,5.57-8.19,2.38-2.31,5.2-4.1,8.46-5.36,3.26-1.26,6.84-1.89,10.77-1.89s7.65.68,10.97,2.05c3.33,1.36,6.43,3.48,9.3,6.35l8.62-8.4c-3.43-3.92-7.65-6.9-12.66-8.93-5.01-2.03-10.59-3.05-16.75-3.05s-11.23.93-16.03,2.79c-4.8,1.85-9,4.5-12.6,7.93-3.61,3.44-6.39,7.43-8.36,11.98-1.96,4.55-2.94,9.6-2.94,15.13s.98,10.57,2.94,15.13c1.96,4.55,4.73,8.55,8.3,11.98,3.57,3.44,7.76,6.08,12.56,7.93,4.79,1.85,10.07,2.78,15.81,2.78,5.26,0,10.4-.78,15.45-2.36,5.04-1.58,9.45-3.91,13.24-6.99v-21.8s5.68,0,5.68,0l-11.97-17.38Zm338.08-24.35l-.14-1.72-.66-8.3-19.06,9.07,5.17,2.99-19.37,32.04-21.74-35.79h-14.5l28.89,47.55v25.99h13.55v-25.83l23.14-38.2,5.6,3.23s-.88-11.02-.88-11.02Z"/>
  </g>
</svg>