<?xml version="1.0" encoding="UTF-8"?>
<svg id="Layer_2" data-name="Layer 2" xmlns="http://www.w3.org/2000/svg" xmlns:xlink="http://www.w3.org/1999/xlink" viewBox="0 0 981.18 252.28">
  <defs>
    <style>
      .cls-1 {
        fill: url(#New_Gradient_Swatch-2);
      }

      .cls-1, .cls-2, .cls-3, .cls-4, .cls-5 {
        stroke-width: 0px;
      }

      .cls-2 {
        fill: #c1272d;
      }

      .cls-3 {
        filter: url(#drop-shadow-1);
      }

      .cls-3, .cls-4 {
        fill: #1f4a2c;
      }

      .cls-5 {
        fill: url(#New_Gradient_Swatch);
      }
    </style>
    <linearGradient id="New_Gradient_Swatch" data-name="New Gradient Swatch" x1="20.13" y1="27.17" x2="168.75" y2="112.98" gradientUnits="userSpaceOnUse">
      <stop offset=".08" stop-color="#1f4a2c"/>
      <stop offset=".16" stop-color="#26502d"/>
      <stop offset=".28" stop-color="#396132"/>
      <stop offset=".37" stop-color="#4e7337"/>
      <stop offset=".53" stop-color="#5a9471"/>
      <stop offset=".73" stop-color="#4e7337"/>
      <stop offset=".91" stop-color="#1f4a2c"/>
    </linearGradient>
    <linearGradient id="New_Gradient_Swatch-2" data-name="New Gradient Swatch" x1="19.11" y1="124.45" x2="155.91" y2="203.44" xlink:href="#New_Gradient_Swatch"/>
    <filter id="drop-shadow-1" filterUnits="userSpaceOnUse">
      <feOffset dx="-9" dy="0"/>
      <feGaussianBlur result="blur" stdDeviation="5"/>
      <feFlood flood-color="#000" flood-opacity=".75"/>
      <feComposite in2="blur" operator="in"/>
      <feComposite in="SourceGraphic"/>
    </filter>
  </defs>
  <g id="Layer_1-2" data-name="Layer 1">
    <g>
      <path class="cls-5" d="m174.4,34.39c-8.82-11.9-20.13-20.61-33.92-26.12C126.69,2.76,111.74,0,95.64,0c-17.43,0-32.98,2.92-46.66,8.77-13.68,5.85-24.27,13.91-31.77,24.17-7.5,10.26-11.25,22.01-11.25,35.25,0,16.56,3.86,29.85,11.58,39.89,7.72,10.04,16.77,17.49,27.14,22.34,1.65.78,3.38,1.55,5.18,2.33-.47-.76-.94-1.55-1.39-2.39-4.46-8.32-6.79-17.3-6.92-26.72-.12-8.82,1.8-17.72,5.54-25.72,7.49-16.03,21.36-27.19,38.07-30.64,3.49-.72,7.04-1.08,10.57-1.08,13.18,0,25.9,5.05,35.83,14.22,5.84,5.39,10.43,11.97,13.54,19.27h42.88c-.22-18.3-4.74-33.39-13.57-45.3Z"/>
      <path class="cls-1" d="m186.05,142.05l-49.26,94.5c-11.39,3.39-24.34,5.09-38.84,5.09-18.97,0-35.8-3.21-50.47-9.6-14.67-6.4-26.2-15.89-34.58-28.47C4.52,190.99.22,175.65,0,157.55h63.97l4.48,8.17h0s15.48,28.24,15.48,28.24l1.95,3.57,9.25,16.87,6.69-10.41c.14-.22.26-.4.36-.55.26-.39.52-.79.8-1.3,1.72-3.13,3.43-6.26,5.14-9.39l3.14-5.74,11.24-20.51,3.58-6.53,1.1-2.01c.85-1.54,1.69-3.08,2.53-4.61.87-1.6,1.73-3.21,2.57-4.78,2.23-4.19,4.33-8.16,6.77-11.8,5.96-8.92,9.45-18.35,10.42-28.16,1.28.56,2.53,1.13,3.73,1.69,10.37,4.85,19.42,12.3,27.14,22.33,2.22,2.88,4.11,6.02,5.69,9.42Z"/>
      <path class="cls-2" d="m142.09,96.96c-3.15-28.41-28.71-47.99-55.45-42.47-31.19,6.44-47.33,43.28-31.69,72.4,1.48,2.76,3.42,5.24,4.94,7.98,8.72,15.8,17.37,31.64,26.05,47.46,3.18,5.81,6.37,11.61,9.7,17.69.45-.7.7-1.04.9-1.41,8.91-16.27,17.81-32.54,26.74-48.8,3.16-5.75,6.05-11.71,9.67-17.12,7.23-10.81,10.6-22.53,9.14-35.72Zm-18.44,5.54c-.23,15.97-13.1,29.05-28.3,28.77-15.64-.29-27.9-13.67-27.61-30.14.28-16.29,13.07-29,28.91-28.72,15.05.27,27.24,13.84,27,30.09Z"/>
      <path class="cls-4" d="m95.82,121.93c-.1,0-.2,0-.31,0-4.98-.09-9.62-2.21-13.06-5.97-3.57-3.89-5.48-9.1-5.38-14.66.19-10.96,8.56-19.54,19.06-19.54.11,0,.23,0,.35,0,4.66.08,9.08,2.19,12.44,5.95,3.55,3.95,5.46,9.16,5.38,14.66-.15,10.6-8.62,19.56-18.48,19.56,0,0,0,0,0,0Z"/>
      <path class="cls-3" d="m157.98,154.47c-10.13,7.08-17.43,16.55-21.91,28.43-4.48,11.88-5.35,25.47-2.59,40.77.77,4.25,1.87,8.55,3.31,12.88l49.26-94.5c-9.17,1.62-18.53,5.76-28.06,12.42Z"/>
    </g>
    <path class="cls-4" d="m306.02,124.97c1.54,2.56,2.31,5.76,2.31,9.61,0,4.27-1.21,8.21-3.62,11.82-2.42,3.61-6.04,6.5-10.87,8.67-4.83,2.17-10.89,3.26-18.18,3.26-6.09,0-11.92-.75-17.49-2.26-5.57-1.51-10.07-3.41-13.5-5.73l6.83-15.44c3.29,2.1,7.09,3.83,11.4,5.2,4.31,1.37,8.6,2.05,12.87,2.05,2.94,0,5.27-.24,6.99-.74,1.72-.49,2.98-1.19,3.78-2.1.8-.91,1.21-2,1.21-3.26,0-1.61-.77-2.89-2.31-3.83-1.54-.95-3.56-1.75-6.04-2.42-2.49-.67-5.18-1.3-8.09-1.89-2.91-.59-5.87-1.38-8.88-2.36-3.01-.98-5.74-2.28-8.19-3.89-2.45-1.61-4.43-3.71-5.94-6.3-1.51-2.59-2.26-5.85-2.26-9.77,0-4.34,1.19-8.3,3.57-11.87,2.38-3.57,5.99-6.44,10.82-8.62,4.83-2.17,10.86-3.26,18.07-3.26,4.83,0,9.58.54,14.24,1.63,4.66,1.09,8.77,2.72,12.34,4.89l-6.3,15.34c-3.5-1.96-6.97-3.4-10.4-4.31-3.43-.91-6.76-1.37-9.98-1.37-2.87,0-5.18.32-6.93.95-1.75.63-3.01,1.44-3.78,2.42-.77.98-1.16,2.03-1.16,3.15,0,1.68.77,2.99,2.31,3.94,1.54.95,3.54,1.72,5.99,2.31,2.45.6,5.16,1.21,8.14,1.84,2.98.63,5.94,1.42,8.88,2.36,2.94.95,5.66,2.21,8.14,3.78,2.49,1.58,4.5,3.64,6.04,6.2Zm36.98-41.66h-20.8v73.54h55.79v-16.49h-34.98v-57.05Zm97.76,35.46c-2.49-1.58-5.2-2.84-8.14-3.78-2.94-.95-5.9-1.73-8.88-2.36s-5.69-1.24-8.14-1.84c-2.45-.59-4.45-1.37-5.99-2.31-1.54-.95-2.31-2.26-2.31-3.94,0-1.12.38-2.17,1.16-3.15.77-.98,2.03-1.79,3.78-2.42,1.75-.63,4.06-.95,6.93-.95,3.22,0,6.55.46,9.98,1.37,3.43.91,6.9,2.35,10.4,4.31l6.3-15.34c-3.57-2.17-7.69-3.8-12.35-4.89-4.66-1.09-9.4-1.63-14.23-1.63-7.22,0-13.24,1.09-18.07,3.26-4.83,2.17-8.44,5.04-10.82,8.62-2.38,3.57-3.57,7.53-3.57,11.87,0,3.92.75,7.18,2.26,9.77,1.51,2.59,3.48,4.69,5.94,6.3,2.45,1.61,5.18,2.91,8.2,3.89,3.01.98,5.97,1.77,8.88,2.36,2.9.6,5.6,1.23,8.09,1.89,2.49.67,4.5,1.47,6.04,2.42,1.54.95,2.31,2.22,2.31,3.83,0,1.26-.4,2.35-1.21,3.26-.81.91-2.07,1.61-3.78,2.1-1.72.49-4.05.74-6.99.74-4.27,0-8.56-.68-12.87-2.05-4.31-1.37-8.11-3.1-11.4-5.2l-6.83,15.44c3.43,2.31,7.93,4.22,13.5,5.73,5.57,1.51,11.4,2.26,17.49,2.26,7.28,0,13.34-1.09,18.18-3.26,4.83-2.17,8.46-5.06,10.87-8.67,2.42-3.61,3.63-7.55,3.63-11.82,0-3.85-.77-7.06-2.31-9.61-1.54-2.56-3.56-4.62-6.04-6.2Zm70.02,4.78c0,6.23-1.21,10.72-3.62,13.45-2.42,2.73-5.8,4.1-10.14,4.1s-7.74-1.37-10.19-4.1c-2.45-2.73-3.68-7.21-3.68-13.45v-40.24h-20.8v40.87c0,10.86,3.03,19.26,9.09,25.21,6.06,5.95,14.51,8.93,25.37,8.93s19.24-2.98,25.37-8.93c6.13-5.95,9.19-14.36,9.19-25.21v-40.87h-20.59v40.24Zm229.35,33.3h-14.4l-7.28-17.02h-36.78l-7.31,17.02h-13.97l33.09-73.54h13.44l33.2,73.54Zm-26.26-27.74l-13.77-32.18-13.82,32.18h27.59Zm105.06,7.78c0,6.31-2.4,11.21-7.2,14.71-4.8,3.5-11.92,5.25-21.38,5.25h-36.67v-73.54h34.57c8.75,0,15.44,1.74,20.07,5.2,4.62,3.47,6.93,8.11,6.93,13.92,0,3.93-.91,7.27-2.73,10.03-1.72,2.62-3.99,4.66-6.8,6.14.89.29,1.76.62,2.6,1,3.29,1.51,5.88,3.7,7.77,6.57s2.84,6.44,2.84,10.72Zm-51.59-22.59h19.33c4.7,0,8.34-.84,10.93-2.52,2.59-1.68,3.89-4.2,3.89-7.57s-1.3-5.98-3.89-7.67c-2.59-1.68-6.23-2.52-10.93-2.52h-19.33v20.28Zm37.93,21.22c0-3.64-1.37-6.32-4.1-8.04-2.73-1.71-6.62-2.57-11.66-2.57h-22.17v21.22h22.17c5.04,0,8.93-.84,11.66-2.52,2.73-1.68,4.1-4.38,4.1-8.09Zm102.01,21.33h-14.39l-7.29-17.02h-36.78l-7.31,17.02h-13.97l33.09-73.54h13.45l33.2,73.54Zm-26.26-27.74l-13.77-32.18-13.82,32.18h27.59Zm-238.79-19.74l-11.97,17.38h5.45v15.34c-1.49.86-3.01,1.56-4.57,2.09-3.39,1.16-6.92,1.73-10.56,1.73-3.92,0-7.49-.63-10.72-1.89-3.22-1.26-6.03-3.05-8.4-5.36-2.38-2.31-4.24-5.06-5.57-8.25-1.33-3.19-2-6.63-2-10.35s.67-7.25,2-10.4,3.19-5.88,5.57-8.19c2.38-2.31,5.2-4.1,8.46-5.36,3.26-1.26,6.84-1.89,10.77-1.89s7.65.68,10.97,2.05c3.33,1.36,6.43,3.48,9.3,6.35l8.62-8.4c-3.43-3.92-7.65-6.9-12.66-8.93-5.01-2.03-10.59-3.05-16.75-3.05s-11.23.93-16.03,2.79c-4.8,1.85-9,4.5-12.6,7.93-3.61,3.44-6.39,7.43-8.36,11.98-1.96,4.55-2.94,9.6-2.94,15.13s.98,10.57,2.94,15.13c1.96,4.55,4.73,8.55,8.3,11.98,3.57,3.44,7.76,6.08,12.56,7.93,4.79,1.85,10.07,2.78,15.81,2.78,5.26,0,10.4-.78,15.45-2.36,5.04-1.58,9.45-3.91,13.24-6.99v-21.8h5.68l-11.97-17.38Zm338.08-24.35l-.14-1.72-.66-8.3-19.06,9.07,5.17,2.99-19.37,32.04-21.74-35.79h-14.5l28.89,47.55v25.99h13.55v-25.83l23.14-38.2,5.6,3.23-.88-11.02Z"/>
  </g>
</svg>